<?xml version="1.0" standalone="no"?>
<!DOCTYPE svg PUBLIC "-//W3C//DTD SVG 20010904//EN"
 "http://www.w3.org/TR/2001/REC-SVG-20010904/DTD/svg10.dtd">
<svg version="1.0" xmlns="http://www.w3.org/2000/svg"
 width="500.000000pt" height="500.000000pt" viewBox="0 0 500.000000 500.000000"
 preserveAspectRatio="xMidYMid meet">
<metadata>
Created by potrace 1.11, written by Peter Selinger 2001-2013
</metadata>
<g transform="translate(0.000000,500.000000) scale(0.100000,-0.100000)"
fill="#000000" stroke="none">
<path d="M0 2500 l0 -2500 2500 0 2500 0 0 2500 0 2500 -2500 0 -2500 0 0
-2500z m3415 1205 c158 -41 276 -106 381 -210 136 -135 203 -287 211 -486 7
-143 -11 -235 -67 -348 -135 -268 -491 -353 -599 -143 l-12 23 -45 -41 c-73
-67 -143 -94 -244 -95 -76 0 -91 3 -138 29 -96 54 -142 146 -142 286 0 250
167 461 415 525 112 29 351 15 415 -25 12 -8 4 -50 -48 -257 -34 -136 -62
-261 -62 -276 1 -101 79 -144 175 -97 184 89 216 522 53 740 -102 138 -247
206 -458 217 -389 19 -689 -256 -717 -657 -16 -238 70 -472 225 -610 78 -69
198 -127 319 -152 198 -41 462 -10 646 76 59 28 82 34 96 27 20 -11 64 -118
55 -133 -12 -19 -207 -106 -284 -127 -186 -50 -423 -53 -602 -7 -300 77 -521
283 -614 571 l-22 69 -16 -39 c-9 -22 -51 -122 -93 -222 l-76 -183 -82 0 c-54
0 -86 4 -92 13 -6 6 -43 199 -84 427 -70 392 -74 412 -87 380 -7 -19 -88 -210
-180 -425 l-167 -390 -87 -3 c-76 -2 -87 -1 -92 15 -3 10 -46 252 -96 538 -49
286 -92 530 -95 543 -5 22 -4 22 84 22 62 0 92 -4 100 -14 13 -15 121 -752
122 -830 l0 -51 14 30 c8 17 89 208 180 425 91 217 173 405 181 418 13 19 23
22 83 22 47 0 72 -4 80 -14 11 -13 145 -761 153 -852 l3 -39 14 45 c7 25 59
164 116 310 58 146 116 305 130 353 97 336 375 583 718 638 73 11 261 3 332
-16z m-1751 -2715 c40 -15 31 -28 -17 -23 -47 6 -61 -4 -72 -47 -12 -51 58
-103 92 -69 6 6 17 8 24 4 19 -12 -19 -35 -58 -35 -91 0 -114 136 -29 170 28
12 31 12 60 0z m244 -26 c30 -35 30 -87 -3 -119 -52 -53 -145 -16 -145 57 0
87 91 125 148 62z m218 -34 c9 -33 20 -58 24 -55 3 2 12 29 19 60 8 37 17 55
27 55 10 0 13 -6 10 -17 -3 -10 -15 -48 -26 -85 -12 -38 -26 -68 -34 -68 -7 0
-20 27 -30 63 l-18 62 -19 -62 c-11 -35 -26 -63 -33 -63 -7 0 -23 36 -38 85
-19 63 -22 85 -13 85 7 0 22 -28 32 -62 l19 -63 18 55 c10 30 19 61 22 68 7
24 23 2 40 -58z m259 58 c29 -13 55 -55 55 -87 0 -11 -12 -33 -26 -50 -45 -54
-123 -37 -148 33 -10 30 13 85 42 101 33 18 44 18 77 3z m345 -41 l0 -41 44
43 c24 24 49 42 55 40 7 -3 -4 -20 -23 -38 l-35 -34 40 -49 c48 -56 32 -65
-22 -12 -41 40 -59 38 -59 -7 0 -19 -5 -29 -15 -29 -12 0 -15 16 -15 83 0 46
3 87 6 90 14 14 24 -6 24 -46z m654 42 c36 -17 23 -28 -23 -22 -32 4 -41 2
-55 -18 -22 -32 -20 -65 5 -90 27 -27 73 -23 77 9 2 12 -1 22 -7 22 -6 0 -11
5 -11 10 0 6 11 10 25 10 20 0 25 -5 25 -27 0 -89 -131 -83 -153 6 -11 46 34
108 80 110 7 1 23 -4 37 -10z m-776 -11 c17 -17 15 -48 -4 -69 -15 -16 -14
-20 11 -53 39 -51 9 -46 -35 6 -41 47 -60 45 -60 -8 0 -19 -4 -34 -10 -34 -6
0 -10 35 -10 85 l0 85 48 0 c26 0 53 -5 60 -12z m357 -73 c0 -81 -1 -85 -22
-85 -13 0 -23 5 -23 10 0 6 5 10 10 10 14 0 13 123 -2 138 -9 9 -7 12 13 12
24 0 24 -1 24 -85z m163 19 l47 -66 3 66 c4 96 22 81 22 -19 0 -105 -10 -108
-71 -22 l-44 62 -3 -62 c-2 -47 -7 -63 -17 -63 -12 0 -15 17 -15 85 0 107 12
110 78 19z"/>
<path d="M3175 3061 c-75 -35 -146 -111 -176 -189 -27 -69 -32 -193 -9 -236
29 -56 109 -72 179 -36 44 22 69 50 94 106 21 48 106 372 99 379 -3 3 -33 5
-66 5 -46 0 -76 -7 -121 -29z"/>
<path d="M1794 945 c-28 -42 2 -105 50 -105 58 0 81 90 32 122 -24 17 -66 8
-82 -17z"/>
<path d="M2306 948 c-22 -31 -20 -64 4 -88 41 -41 100 -13 100 47 0 58 -73 86
-104 41z"/>
<path d="M2520 945 c0 -24 3 -26 38 -23 29 2 37 7 37 23 0 16 -8 21 -37 23
-35 3 -38 1 -38 -23z"/>
</g>
</svg>
